<svg xmlns="http://www.w3.org/2000/svg" xmlns:xlink="http://www.w3.org/1999/xlink" viewBox="16 39.25714111328125 374 128.24285888671875" width="583.2683445249249" height="200"><path d="M 21.000,114.500 C 22.753,111.309 23.000,111.500 25.000,108.500" stroke-width="5.352" stroke="black" fill="none" stroke-linecap="round"></path><path d="M 25.000,108.500 C 28.324,103.076 28.753,103.809 33.000,99.500" stroke-width="4.453" stroke="black" fill="none" stroke-linecap="round"></path><path d="M 33.000,99.500 C 37.730,95.233 36.824,96.576 42.000,95.500" stroke-width="4.346" stroke="black" fill="none" stroke-linecap="round"></path><path d="M 42.000,95.500 C 46.106,97.400 45.730,95.733 49.000,100.500" stroke-width="4.663" stroke="black" fill="none" stroke-linecap="round"></path><path d="M 49.000,100.500 C 51.991,105.957 53.106,104.900 56.000,110.500" stroke-width="4.283" stroke="black" fill="none" stroke-linecap="round"></path><path d="M 56.000,110.500 C 59.708,114.434 59.491,114.457 64.000,117.500" stroke-width="4.263" stroke="black" fill="none" stroke-linecap="round"></path><path d="M 64.000,117.500 C 66.853,119.451 66.708,119.434 70.000,120.500" stroke-width="4.527" stroke="black" fill="none" stroke-linecap="round"></path><path d="M 70.000,120.500 C 73.181,122.205 72.853,121.451 76.000,121.500" stroke-width="4.251" stroke="black" fill="none" stroke-linecap="round"></path><path d="M 76.000,121.500 C 81.777,119.931 81.181,120.205 86.000,116.500" stroke-width="4.238" stroke="black" fill="none" stroke-linecap="round"></path><path d="M 86.000,116.500 C 88.912,112.430 89.777,113.431 92.000,108.500" stroke-width="4.314" stroke="black" fill="none" stroke-linecap="round"></path><path d="M 92.000,108.500 C 94.527,105.522 94.412,105.430 97.000,102.500" stroke-width="4.475" stroke="black" fill="none" stroke-linecap="round"></path><path d="M 114.000,132.500 C 113.575,127.965 114.000,128.000 114.000,123.500" stroke-width="4.891" stroke="black" fill="none" stroke-linecap="round"></path><path d="M 114.000,123.500 C 115.039,117.506 114.575,117.465 116.000,111.500" stroke-width="4.317" stroke="black" fill="none" stroke-linecap="round"></path><path d="M 116.000,111.500 C 116.919,104.986 117.039,105.006 118.000,98.500" stroke-width="3.376" stroke="black" fill="none" stroke-linecap="round"></path><path d="M 118.000,98.500 C 118.904,92.981 118.919,92.986 120.000,87.500" stroke-width="3.388" stroke="black" fill="none" stroke-linecap="round"></path><path d="M 120.000,87.500 C 120.978,82.995 120.904,82.981 122.000,78.500" stroke-width="3.565" stroke="black" fill="none" stroke-linecap="round"></path><path d="M 122.000,78.500 C 123.304,71.945 123.478,71.995 125.000,65.500" stroke-width="3.201" stroke="black" fill="none" stroke-linecap="round"></path><path d="M 125.000,65.500 C 125.699,62.362 125.804,62.445 127.000,59.500" stroke-width="3.781" stroke="black" fill="none" stroke-linecap="round"></path><path d="M 127.000,59.500 C 129.368,53.868 128.199,56.862 130.000,54.500" stroke-width="4.429" stroke="black" fill="none" stroke-linecap="round"></path><path d="M 130.000,54.500 C 129.716,58.524 130.868,55.368 130.000,62.500" stroke-width="4.632" stroke="black" fill="none" stroke-linecap="round"></path><path d="M 130.000,62.500 C 130.589,65.487 130.216,65.524 131.000,68.500" stroke-width="4.278" stroke="black" fill="none" stroke-linecap="round"></path><path d="M 131.000,68.500 C 132.039,76.495 132.089,76.487 133.000,84.500" stroke-width="3.125" stroke="black" fill="none" stroke-linecap="round"></path><path d="M 133.000,84.500 C 133.115,89.073 133.539,88.995 134.000,93.500" stroke-width="3.488" stroke="black" fill="none" stroke-linecap="round"></path><path d="M 134.000,93.500 C 134.283,101.444 135.115,99.073 137.000,104.500" stroke-width="3.343" stroke="black" fill="none" stroke-linecap="round"></path><path d="M 137.000,104.500 C 140.219,104.281 138.283,105.944 142.000,102.500" stroke-width="4.404" stroke="black" fill="none" stroke-linecap="round"></path><path d="M 142.000,102.500 C 143.700,99.588 144.219,100.281 145.000,96.500" stroke-width="4.138" stroke="black" fill="none" stroke-linecap="round"></path><path d="M 145.000,96.500 C 147.555,90.021 147.700,90.088 150.000,83.500" stroke-width="3.276" stroke="black" fill="none" stroke-linecap="round"></path><path d="M 150.000,83.500 C 151.945,77.979 152.055,78.021 154.000,72.500" stroke-width="3.257" stroke="black" fill="none" stroke-linecap="round"></path><path d="M 154.000,72.500 C 156.701,66.067 156.445,65.979 159.000,59.500" stroke-width="3.139" stroke="black" fill="none" stroke-linecap="round"></path><path d="M 159.000,59.500 C 160.251,51.564 160.201,56.067 161.000,52.500" stroke-width="3.615" stroke="black" fill="none" stroke-linecap="round"></path><path d="M 161.000,52.500 C 162.597,58.451 162.251,54.064 163.000,64.500" stroke-width="4.383" stroke="black" fill="none" stroke-linecap="round"></path><path d="M 163.000,64.500 C 163.300,73.512 163.597,73.451 163.000,82.500" stroke-width="3.080" stroke="black" fill="none" stroke-linecap="round"></path><path d="M 163.000,82.500 C 162.599,88.510 162.800,88.512 162.000,94.500" stroke-width="3.226" stroke="black" fill="none" stroke-linecap="round"></path><path d="M 162.000,94.500 C 160.901,103.490 161.099,103.510 160.000,112.500" stroke-width="2.791" stroke="black" fill="none" stroke-linecap="round"></path><path d="M 160.000,112.500 C 159.316,118.492 159.401,118.490 159.000,124.500" stroke-width="3.071" stroke="black" fill="none" stroke-linecap="round"></path><path d="M 180.000,93.500 C 181.332,96.935 181.000,97.000 182.000,100.500" stroke-width="4.989" stroke="black" fill="none" stroke-linecap="round"></path><path d="M 182.000,100.500 C 182.699,104.989 182.832,104.935 183.000,109.500" stroke-width="3.922" stroke="black" fill="none" stroke-linecap="round"></path><path d="M 183.000,109.500 C 183.187,112.509 183.199,112.489 183.000,115.500" stroke-width="4.084" stroke="black" fill="none" stroke-linecap="round"></path><path d="M 183.000,115.500 C 182.977,120.617 182.687,120.509 182.000,125.500" stroke-width="3.684" stroke="black" fill="none" stroke-linecap="round"></path><path d="M 204.000,93.500 C 199.500,94.000 200.500,95.000 197.000,96.500" stroke-width="5.005" stroke="black" fill="none" stroke-linecap="round"></path><path d="M 197.000,96.500 C 194.519,99.870 194.500,99.000 194.000,103.500" stroke-width="4.711" stroke="black" fill="none" stroke-linecap="round"></path><path d="M 194.000,103.500 C 192.869,108.175 193.519,106.870 195.000,110.500" stroke-width="4.113" stroke="black" fill="none" stroke-linecap="round"></path><path d="M 195.000,110.500 C 199.754,114.043 198.369,114.175 205.000,115.500" stroke-width="4.196" stroke="black" fill="none" stroke-linecap="round"></path><path d="M 205.000,115.500 C 209.390,116.611 208.754,116.543 213.000,115.500" stroke-width="4.423" stroke="black" fill="none" stroke-linecap="round"></path><path d="M 213.000,115.500 C 215.906,113.855 215.890,114.611 218.000,111.500" stroke-width="4.131" stroke="black" fill="none" stroke-linecap="round"></path><path d="M 218.000,111.500 C 219.933,109.167 219.906,109.355 221.000,106.500" stroke-width="4.171" stroke="black" fill="none" stroke-linecap="round"></path><path d="M 221.000,106.500 C 221.640,104.022 221.933,104.167 222.000,101.500" stroke-width="4.237" stroke="black" fill="none" stroke-linecap="round"></path><path d="M 222.000,101.500 C 223.676,91.147 222.640,97.022 223.000,92.500" stroke-width="3.764" stroke="black" fill="none" stroke-linecap="round"></path><path d="M 223.000,92.500 C 219.658,100.879 221.676,95.147 218.000,109.500" stroke-width="4.368" stroke="black" fill="none" stroke-linecap="round"></path><path d="M 218.000,109.500 C 218.000,114.000 217.158,113.879 218.000,118.500" stroke-width="3.801" stroke="black" fill="none" stroke-linecap="round"></path><path d="M 218.000,118.500 C 217.602,123.526 218.000,123.500 218.000,128.500" stroke-width="3.557" stroke="black" fill="none" stroke-linecap="round"></path><path d="M 218.000,128.500 C 218.705,136.056 218.602,136.026 220.000,143.500" stroke-width="3.129" stroke="black" fill="none" stroke-linecap="round"></path><path d="M 220.000,143.500 C 221.421,147.448 220.705,147.556 222.000,151.500" stroke-width="3.563" stroke="black" fill="none" stroke-linecap="round"></path><path d="M 222.000,151.500 C 222.527,154.601 222.421,154.448 222.000,157.500" stroke-width="3.917" stroke="black" fill="none" stroke-linecap="round"></path><path d="M 222.000,157.500 C 221.840,161.810 221.527,160.101 220.000,162.500" stroke-width="4.542" stroke="black" fill="none" stroke-linecap="round"></path><path d="M 220.000,162.500 C 216.639,162.084 217.840,163.310 214.000,160.500" stroke-width="4.649" stroke="black" fill="none" stroke-linecap="round"></path><path d="M 214.000,160.500 C 212.000,158.500 211.639,159.084 210.000,156.500" stroke-width="4.292" stroke="black" fill="none" stroke-linecap="round"></path><path d="M 210.000,156.500 C 207.174,154.267 207.500,154.000 205.000,151.500" stroke-width="4.111" stroke="black" fill="none" stroke-linecap="round"></path><path d="M 205.000,151.500 C 201.737,147.153 201.674,147.267 199.000,142.500" stroke-width="3.552" stroke="black" fill="none" stroke-linecap="round"></path><path d="M 242.000,95.500 C 240.708,98.431 241.000,98.500 240.000,101.500" stroke-width="5.184" stroke="black" fill="none" stroke-linecap="round"></path><path d="M 240.000,101.500 C 239.235,104.981 239.208,104.931 239.000,108.500" stroke-width="4.214" stroke="black" fill="none" stroke-linecap="round"></path><path d="M 239.000,108.500 C 237.828,112.985 238.735,112.481 239.000,116.500" stroke-width="4.429" stroke="black" fill="none" stroke-linecap="round"></path><path d="M 239.000,116.500 C 240.491,119.728 239.828,118.985 243.000,120.500" stroke-width="4.234" stroke="black" fill="none" stroke-linecap="round"></path><path d="M 243.000,120.500 C 248.048,121.982 246.991,121.728 252.000,120.500" stroke-width="4.381" stroke="black" fill="none" stroke-linecap="round"></path><path d="M 252.000,120.500 C 256.159,117.972 256.048,118.982 259.000,114.500" stroke-width="4.371" stroke="black" fill="none" stroke-linecap="round"></path><path d="M 259.000,114.500 C 260.198,108.538 260.659,112.472 261.000,109.500" stroke-width="4.301" stroke="black" fill="none" stroke-linecap="round"></path><path d="M 261.000,109.500 C 262.111,115.149 262.698,111.538 264.000,120.500" stroke-width="4.763" stroke="black" fill="none" stroke-linecap="round"></path><path d="M 264.000,120.500 C 264.602,124.582 265.111,123.649 267.000,126.500" stroke-width="4.717" stroke="black" fill="none" stroke-linecap="round"></path><path d="M 267.000,126.500 C 270.951,129.686 269.602,128.582 274.000,128.500" stroke-width="4.622" stroke="black" fill="none" stroke-linecap="round"></path><path d="M 274.000,128.500 C 279.829,124.326 279.951,126.186 285.000,119.500" stroke-width="4.088" stroke="black" fill="none" stroke-linecap="round"></path><path d="M 285.000,119.500 C 287.119,117.087 287.329,117.326 289.000,114.500" stroke-width="4.038" stroke="black" fill="none" stroke-linecap="round"></path><path d="M 287.000,114.500 C 290.500,114.500 290.500,114.500 294.000,114.500" stroke-width="5.236" stroke="black" fill="none" stroke-linecap="round"></path><path d="M 294.000,114.500 C 297.622,115.176 297.500,114.500 301.000,114.500" stroke-width="4.234" stroke="black" fill="none" stroke-linecap="round"></path><path d="M 301.000,114.500 C 305.633,113.905 305.122,113.676 309.000,111.500" stroke-width="4.376" stroke="black" fill="none" stroke-linecap="round"></path><path d="M 309.000,111.500 C 313.482,108.548 312.633,108.905 315.000,104.500" stroke-width="4.390" stroke="black" fill="none" stroke-linecap="round"></path><path d="M 315.000,104.500 C 316.666,99.109 316.482,100.548 315.000,95.500" stroke-width="4.430" stroke="black" fill="none" stroke-linecap="round"></path><path d="M 315.000,95.500 C 312.069,91.500 313.666,92.609 309.000,91.500" stroke-width="4.559" stroke="black" fill="none" stroke-linecap="round"></path><path d="M 309.000,91.500 C 305.167,93.064 305.569,91.500 302.000,95.500" stroke-width="4.736" stroke="black" fill="none" stroke-linecap="round"></path><path d="M 302.000,95.500 C 298.667,98.240 298.667,98.064 296.000,101.500" stroke-width="4.002" stroke="black" fill="none" stroke-linecap="round"></path><path d="M 296.000,101.500 C 294.528,104.017 294.167,103.740 293.000,106.500" stroke-width="4.131" stroke="black" fill="none" stroke-linecap="round"></path><path d="M 293.000,106.500 C 290.095,110.309 290.528,110.517 288.000,114.500" stroke-width="3.698" stroke="black" fill="none" stroke-linecap="round"></path><path d="M 288.000,114.500 C 285.190,118.340 286.595,117.309 286.000,120.500" stroke-width="4.359" stroke="black" fill="none" stroke-linecap="round"></path><path d="M 286.000,120.500 C 288.373,122.036 286.690,122.340 291.000,122.500" stroke-width="4.252" stroke="black" fill="none" stroke-linecap="round"></path><path d="M 291.000,122.500 C 297.108,124.036 296.873,123.536 303.000,123.500" stroke-width="4.160" stroke="black" fill="none" stroke-linecap="round"></path><path d="M 303.000,123.500 C 308.541,122.977 308.108,123.036 313.000,120.500" stroke-width="4.259" stroke="black" fill="none" stroke-linecap="round"></path><path d="M 313.000,120.500 C 317.107,117.115 317.541,117.977 321.000,113.500" stroke-width="3.603" stroke="black" fill="none" stroke-linecap="round"></path><path d="M 321.000,113.500 C 324.436,110.833 324.107,110.615 327.000,107.500" stroke-width="3.706" stroke="black" fill="none" stroke-linecap="round"></path><path d="M 327.000,107.500 C 328.899,103.939 329.436,104.333 331.000,100.500" stroke-width="3.730" stroke="black" fill="none" stroke-linecap="round"></path><path d="M 331.000,100.500 C 334.519,95.012 334.399,94.939 338.000,89.500" stroke-width="3.265" stroke="black" fill="none" stroke-linecap="round"></path><path d="M 338.000,89.500 C 340.430,85.455 340.519,85.512 343.000,81.500" stroke-width="3.504" stroke="black" fill="none" stroke-linecap="round"></path><path d="M 343.000,81.500 C 346.845,75.387 346.930,75.455 351.000,69.500" stroke-width="3.103" stroke="black" fill="none" stroke-linecap="round"></path><path d="M 351.000,69.500 C 352.973,66.978 352.845,66.887 355.000,64.500" stroke-width="3.732" stroke="black" fill="none" stroke-linecap="round"></path><path d="M 355.000,64.500 C 357.975,61.791 357.473,61.478 360.000,58.500" stroke-width="3.817" stroke="black" fill="none" stroke-linecap="round"></path><path d="M 360.000,58.500 C 362.161,55.136 361.975,55.291 363.000,51.500" stroke-width="3.813" stroke="black" fill="none" stroke-linecap="round"></path><path d="M 363.000,51.500 C 364.351,47.392 363.661,48.636 363.000,45.500" stroke-width="4.443" stroke="black" fill="none" stroke-linecap="round"></path><path d="M 363.000,45.500 C 360.500,44.500 361.851,43.892 358.000,44.500" stroke-width="4.748" stroke="black" fill="none" stroke-linecap="round"></path><path d="M 358.000,44.500 C 355.278,44.464 355.500,44.500 353.000,45.500" stroke-width="4.847" stroke="black" fill="none" stroke-linecap="round"></path><path d="M 353.000,45.500 C 349.913,47.381 349.778,46.964 347.000,49.500" stroke-width="4.125" stroke="black" fill="none" stroke-linecap="round"></path><path d="M 347.000,49.500 C 344.252,51.248 344.413,51.381 342.000,53.500" stroke-width="4.049" stroke="black" fill="none" stroke-linecap="round"></path><path d="M 342.000,53.500 C 339.200,56.284 339.252,56.248 337.000,59.500" stroke-width="3.911" stroke="black" fill="none" stroke-linecap="round"></path><path d="M 337.000,59.500 C 332.038,65.595 332.700,65.784 329.000,72.500" stroke-width="3.126" stroke="black" fill="none" stroke-linecap="round"></path><path d="M 329.000,72.500 C 326.654,78.396 326.538,78.095 326.000,84.500" stroke-width="3.216" stroke="black" fill="none" stroke-linecap="round"></path><path d="M 326.000,84.500 C 324.015,93.126 325.154,92.396 326.000,100.500" stroke-width="2.922" stroke="black" fill="none" stroke-linecap="round"></path><path d="M 326.000,100.500 C 328.852,106.108 327.515,106.126 333.000,110.500" stroke-width="3.105" stroke="black" fill="none" stroke-linecap="round"></path><path d="M 333.000,110.500 C 337.466,115.481 337.352,115.108 343.000,118.500" stroke-width="3.119" stroke="black" fill="none" stroke-linecap="round"></path><path d="M 343.000,118.500 C 348.820,121.434 348.466,121.481 355.000,122.500" stroke-width="3.135" stroke="black" fill="none" stroke-linecap="round"></path><path d="M 355.000,122.500 C 363.578,123.837 363.320,123.934 372.000,123.500" stroke-width="2.836" stroke="black" fill="none" stroke-linecap="round"></path><path d="M 372.000,123.500 C 376.341,123.189 376.078,123.337 380.000,121.500" stroke-width="3.397" stroke="black" fill="none" stroke-linecap="round"></path><path d="M 380.000,121.500 C 383.099,119.944 382.841,120.189 385.000,117.500" stroke-width="3.809" stroke="black" fill="none" stroke-linecap="round"></path><path d="M 175.000,69.500 C 176.700,64.500 176.500,67.000 178.000,64.500" stroke-width="5.345" stroke="black" fill="none" stroke-linecap="round"></path><path d="M 178.000,64.500 C 180.750,68.750 179.200,64.500 180.000,69.500" stroke-width="5.243" stroke="black" fill="none" stroke-linecap="round"></path><path d="M 180.000,69.500 C 176.027,69.298 179.250,70.250 175.000,67.500" stroke-width="5.331" stroke="black" fill="none" stroke-linecap="round"></path><path d="M 175.000,67.500 C 175.382,62.088 174.027,65.798 176.000,62.500" stroke-width="5.319" stroke="black" fill="none" stroke-linecap="round"></path></svg>